HIERARCHY
ROOT hip
{
  OFFSET 0 0 0
  CHANNELS 6 Xposition Yposition Zposition Zrotation Yrotation Xrotation
  JOINT abdomen
  {
    OFFSET 0 20.6881 -0.73152
    CHANNELS 3 Zrotation Xrotation Yrotation
    JOINT chest
    {
      OFFSET 0 11.7043 -0.48768
      CHANNELS 3 Zrotation Xrotation Yrotation
      JOINT neck
      {
        OFFSET 0 22.1894 -2.19456
        CHANNELS 3 Zrotation Xrotation Yrotation
        JOINT head
        {
          OFFSET -0.24384 7.07133 1.2192
          CHANNELS 3 Zrotation Xrotation Yrotation
          JOINT leftEye
          {
            OFFSET 4.14528 8.04674 8.04672
            CHANNELS 3 Zrotation Xrotation Yrotation
            End Site
            {
              OFFSET 1 0 0
            }
          }
          JOINT rightEye
          {
            OFFSET -3.6576 8.04674 8.04672
            CHANNELS 3 Zrotation Xrotation Yrotation
            End Site
            {
              OFFSET 1 0 0
            }
          }
        }
      }
      JOINT rCollar
      {
        OFFSET -2.68224 19.2634 -4.8768
        CHANNELS 3 Zrotation Xrotation Yrotation
        JOINT rShldr
        {
          OFFSET -8.77824 -1.95073 1.46304
          CHANNELS 3 Zrotation Xrotation Yrotation
          JOINT rForeArm
          {
            OFFSET -28.1742 -1.7115 0.48768
            CHANNELS 3 Zrotation Xrotation Yrotation
            JOINT rHand
            {
              OFFSET -22.5879 0.773209 7.07136
              CHANNELS 3 Zrotation Xrotation Yrotation
              JOINT rThumb1
              {
                OFFSET -1.2192 -0.487915 3.41376
                CHANNELS 3 Zrotation Xrotation Yrotation
                JOINT rThumb2
                {
                  OFFSET -3.37035 -0.52449 3.41376
                  CHANNELS 3 Zrotation Xrotation Yrotation
                  End Site
                  {
                    OFFSET -1.78271 -1.18214 1.43049
                  }
                }
              }
              JOINT rIndex1
              {
                OFFSET -7.75947 0.938293 5.60832
                CHANNELS 3 Zrotation Xrotation Yrotation
                JOINT rIndex2
                {
                  OFFSET -2.54057 -0.884171 1.56538
                  CHANNELS 3 Zrotation Xrotation Yrotation
                  End Site
                  {
                    OFFSET -1.62519 -0.234802 1.16502
                  }
                }
              }
              JOINT rMid1
              {
                OFFSET -8.24714 1.18213 3.41376
                CHANNELS 3 Zrotation Xrotation Yrotation
                JOINT rMid2
                {
                  OFFSET -3.10165 -0.590103 1.0647
                  CHANNELS 3 Zrotation Xrotation Yrotation
                  End Site
                  {
                    OFFSET -2.48547 -0.328903 0.83742
                  }
                }
              }
              JOINT rRing1
              {
                OFFSET -8.82822 0.546677 1.51678
                CHANNELS 3 Zrotation Xrotation Yrotation
                JOINT rRing2
                {
                  OFFSET -2.60934 -0.819778 -0.0198488
                  CHANNELS 3 Zrotation Xrotation Yrotation
                  End Site
                  {
                    OFFSET -2.33842 -0.294052 0.168128
                  }
                }
              }
              JOINT rPinky1
              {
                OFFSET -8.27202 -0.0477905 -0.4584
                CHANNELS 3 Zrotation Xrotation Yrotation
                JOINT rPinky2
                {
                  OFFSET -1.82734 -0.647385 -0.700984
                  CHANNELS 3 Zrotation Xrotation Yrotation
                  End Site
                  {
                    OFFSET -1.69225 -0.51767 -0.607171
                  }
                }
              }
            }
          }
        }
      }
      JOINT lCollar
      {
        OFFSET 2.68224 19.2634 -4.8768
        CHANNELS 3 Zrotation Xrotation Yrotation
        JOINT lShldr
        {
          OFFSET 8.77824 -1.95073 1.46304
          CHANNELS 3 Zrotation Xrotation Yrotation
          JOINT lForeArm
          {
            OFFSET 28.1742 -1.7115 0.48768
            CHANNELS 3 Zrotation Xrotation Yrotation
            JOINT lHand
            {
              OFFSET 22.5879 0.773209 7.07136
              CHANNELS 3 Zrotation Xrotation Yrotation
              JOINT lThumb1
              {
                OFFSET 1.2192 -0.487915 3.41376
                CHANNELS 3 Zrotation Xrotation Yrotation
                JOINT lThumb2
                {
                  OFFSET 3.37035 -0.52449 3.41376
                  CHANNELS 3 Zrotation Xrotation Yrotation
                  End Site
                  {
                    OFFSET 1.78271 -1.18214 1.43049
                  }
                }
              }
              JOINT lIndex1
              {
                OFFSET 7.75947 0.938293 5.60832
                CHANNELS 3 Zrotation Xrotation Yrotation
                JOINT lIndex2
                {
                  OFFSET 2.54057 -0.884171 1.56538
                  CHANNELS 3 Zrotation Xrotation Yrotation
                  End Site
                  {
                    OFFSET 1.62519 -0.234802 1.16502
                  }
                }
              }
              JOINT lMid1
              {
                OFFSET 8.24714 1.18213 3.41376
                CHANNELS 3 Zrotation Xrotation Yrotation
                JOINT lMid2
                {
                  OFFSET 3.10165 -0.590103 1.0647
                  CHANNELS 3 Zrotation Xrotation Yrotation
                  End Site
                  {
                    OFFSET 2.48547 -0.328903 0.83742
                  }
                }
              }
              JOINT lRing1
              {
                OFFSET 8.82822 0.546677 1.51678
                CHANNELS 3 Zrotation Xrotation Yrotation
                JOINT lRing2
                {
                  OFFSET 2.60934 -0.819778 -0.0198488
                  CHANNELS 3 Zrotation Xrotation Yrotation
                  End Site
                  {
                    OFFSET 2.33842 -0.294052 0.168128
                  }
                }
              }
              JOINT lPinky1
              {
                OFFSET 8.27202 -0.0477905 -0.4584
                CHANNELS 3 Zrotation Xrotation Yrotation
                JOINT lPinky2
                {
                  OFFSET 1.82734 -0.647385 -0.700984
                  CHANNELS 3 Zrotation Xrotation Yrotation
                  End Site
                  {
                    OFFSET 1.69225 -0.51767 -0.607171
                  }
                }
              }
            }
          }
        }
      }
    }
  }
  JOINT rButtock
  {
    OFFSET -8.77824 4.35084 1.2192
    CHANNELS 3 Zrotation Xrotation Yrotation
    JOINT rThigh
    {
      OFFSET 0 -1.70687 -2.19456
      CHANNELS 3 Zrotation Xrotation Yrotation
      JOINT rShin
      {
        OFFSET 0 -36.8199 0.73152
        CHANNELS 3 Zrotation Xrotation Yrotation
        JOINT rFoot
        {
          OFFSET 0.73152 -45.1104 -5.12064
          CHANNELS 3 Zrotation Xrotation Yrotation
          End Site
          {
            OFFSET -1.1221 -3.69964 12.103
          }
        }
      }
    }
  }
  JOINT lButtock
  {
    OFFSET 8.77824 4.35084 1.2192
    CHANNELS 3 Zrotation Xrotation Yrotation
    JOINT lThigh
    {
      OFFSET 0 -1.70687 -2.19456
      CHANNELS 3 Zrotation Xrotation Yrotation
      JOINT lShin
      {
        OFFSET 0 -36.8199 0.73152
        CHANNELS 3 Zrotation Xrotation Yrotation
        JOINT lFoot
        {
          OFFSET -0.73152 -45.1104 -5.12064
          CHANNELS 3 Zrotation Xrotation Yrotation
          End Site
          {
            OFFSET 1.1221 -3.69964 12.103
          }
        }
      }
    }
  }
}
MOTION
Frames:	7
Frame Time:	0.00833333
-58.8008 83.0693 24.6029 -108.058 87.9479 -88.594 0.951907 9.03524 2.43818 4.11184 3.74923 0.767925 2.07519 3.86164 -1.40569 -7.06781 25.5395 2.07205 -0.0 0.0 0.0 -0.0 0.0 0.0 -1.12105e-13 -3.43997e-13 -8.65707e-14 60.3858 47.6873 34.9965 -20.3174 -13.4162 39.4561 -4.32872 -49.3223 -9.41142 5.55102e-11 -7.17586e-10 -9.12215e-10 1.34776e-10 -1.26327e-09 -1.57062e-09 5.55146e-11 -7.17588e-10 -9.12218e-10 7.73091 5.47488 0.417314 5.55087e-11 -7.17587e-10 -9.12221e-10 2.90554 0.965183 0.102902 5.55111e-11 -7.17587e-10 -9.12215e-10 10.2786 0.731801 0.0259123 5.55027e-11 -7.17583e-10 -9.12205e-10 2.22167 -0.733487 -0.20892 -1.12132e-13 -3.43997e-13 -8.67198e-14 -24.8408 57.5383 -75.845 18.7436 -11.509 -35.7103 4.23185 -48.9372 9.28332 7.18125e-10 6.14771e-10 -5.76297e-10 1.25777e-09 1.02556e-09 -9.64879e-10 7.18116e-10 6.14774e-10 -5.76285e-10 -7.73091 5.47488 -0.417314 7.18124e-10 6.14779e-10 -5.76301e-10 -2.90554 0.965183 -0.102902 7.18118e-10 6.1477e-10 -5.76291e-10 -10.2786 0.731801 -0.0259123 7.18129e-10 6.1477e-10 -5.76294e-10 -2.22167 -0.733487 0.20892 -2.03217e-16 0.0 -3.88251e-19 -10.5485 -33.2181 -5.64153 -0.153153 24.154 0.277848 -1.73543 -2.51206 -10.8414 2.03217e-16 0.0 3.88251e-19 10.5068 -37.3571 5.15836 -0.001956 24.3975 -0.431344 -0.741693 -4.59428 -6.57206
-58.8107 83.0744 24.606 -115.271 87.7881 -95.769 1.08618 9.00757 2.45053 4.03695 3.73561 0.777832 2.12355 3.86523 -1.42217 -7.01875 25.503 2.026 -0.0 0.0 0.0 -0.0 0.0 0.0 -9.13327e-14 1.70255e-13 -1.06398e-13 60.4924 47.7305 34.9066 -20.3403 -13.4459 39.5123 -4.34999 -49.4059 -9.43947 3.81946e-10 -3.55519e-10 -6.3865e-10 6.83345e-10 -5.98466e-10 -1.08558e-09 3.81951e-10 -3.5552e-10 -6.38654e-10 7.73091 5.47488 0.417314 3.81945e-10 -3.5552e-10 -6.38656e-10 2.90554 0.965183 0.102902 3.81947e-10 -3.5552e-10 -6.38649e-10 10.2786 0.731801 0.0259123 3.8194e-10 -3.55517e-10 -6.38638e-10 2.22167 -0.733487 -0.20892 -9.13975e-14 1.70253e-13 -1.06546e-13 -24.6432 57.5426 -75.9607 18.7455 -11.5112 -35.7147 4.24019 -48.9707 9.29437 2.66302e-10 1.11913e-10 -5.61244e-11 4.61432e-10 1.83697e-10 -8.62375e-11 2.66292e-10 1.11914e-10 -5.61106e-11 -7.73091 5.47488 -0.417314 2.66301e-10 1.1192e-10 -5.61259e-11 -2.90554 0.965183 -0.102902 2.66295e-10 1.11911e-10 -5.61198e-11 -10.2786 0.731801 -0.0259123 2.66306e-10 1.11912e-10 -5.6124e-11 -2.22167 -0.733487 0.20892 -2.03217e-16 0.0 -3.88251e-19 -10.628 -33.1323 -5.82686 -0.155016 24.1356 0.27596 -1.75966 -2.53409 -10.9897 2.03217e-16 0.0 3.88251e-19 10.4424 -37.4032 5.13144 -0.00346227 24.257 -0.426041 -0.772192 -4.56834 -6.85221
-58.8266 83.0791 24.5998 -123.162 87.5933 -103.605 1.27675 8.98095 2.45365 3.93782 3.71012 0.787693 2.16891 3.87734 -1.43049 -6.97479 25.4632 1.99776 -0.0 0.0 0.0 -0.0 0.0 0.0 -4.92327e-14 9.34323e-13 -1.24337e-13 60.5783 47.8251 34.8264 -20.3724 -13.4875 39.5913 -4.37851 -49.5172 -9.477 6.97052e-10 1.70019e-10 -1.61988e-10 1.20346e-09 3.54075e-10 -2.50904e-10 6.97059e-10 1.70019e-10 -1.61993e-10 7.73091 5.47488 0.417314 6.97051e-10 1.70018e-10 -1.61991e-10 2.90554 0.965183 0.102902 6.97054e-10 1.70017e-10 -1.61984e-10 10.2786 0.731801 0.0259123 6.97049e-10 1.70018e-10 -1.61973e-10 2.22167 -0.733487 -0.20892 -4.93429e-14 9.3432e-13 -1.24489e-13 -24.5025 57.5462 -76.0063 18.7481 -11.5142 -35.7209 4.24424 -48.9869 9.29973 -3.47602e-10 -5.98198e-10 6.75097e-10 -6.21676e-10 -1.0101e-09 1.14984e-09 -3.47613e-10 -5.98202e-10 6.75111e-10 -7.73091 5.47488 -0.417314 -3.47602e-10 -5.98195e-10 6.75098e-10 -2.90554 0.965183 -0.102902 -3.47608e-10 -5.98201e-10 6.75097e-10 -10.2786 0.731801 -0.0259123 -3.47596e-10 -5.98199e-10 6.75092e-10 -2.22167 -0.733487 0.20892 -2.03217e-16 0.0 -3.88251e-19 -10.6565 -33.0528 -6.02781 -0.158955 24.1041 0.273652 -1.7748 -2.53144 -11.1092 2.03217e-16 0.0 3.88251e-19 10.4531 -37.4712 5.12051 -0.00440705 24.1556 -0.421676 -0.811967 -4.53057 -7.21445
-58.8332 83.0853 24.5765 -130.411 87.4359 -110.841 1.46441 8.95538 2.45936 3.84622 3.68213 0.798072 2.21042 3.8917 -1.43707 -6.9411 25.4214 1.97602 -0.0 0.0 0.0 -0.0 0.0 0.0 -5.35819e-15 1.63762e-12 -1.36512e-13 60.6455 47.9257 34.7545 -20.4051 -13.53 39.6724 -4.4096 -49.6376 -9.51782 9.18225e-10 6.55342e-10 3.13753e-10 1.5623e-09 1.22821e-09 5.78299e-10 9.18233e-10 6.55344e-10 3.13747e-10 7.73091 5.47488 0.417314 9.18224e-10 6.55341e-10 3.13751e-10 2.90554 0.965183 0.102902 9.18228e-10 6.5534e-10 3.13759e-10 10.2786 0.731801 0.0259123 9.18225e-10 6.5534e-10 3.13771e-10 2.22167 -0.733487 -0.20892 -5.5093e-15 1.63762e-12 -1.36667e-13 -24.3678 57.5497 -76.051 18.75 -11.5165 -35.7253 4.2463 -48.9952 9.30246 -8.86885e-10 -1.26058e-09 1.35423e-09 -1.57462e-09 -2.12733e-09 2.29921e-09 -8.86897e-10 -1.26059e-09 1.35424e-09 -7.73091 5.47488 -0.417314 -8.86885e-10 -1.26058e-09 1.35423e-09 -2.90554 0.965183 -0.102902 -8.8689e-10 -1.26058e-09 1.35422e-09 -10.2786 0.731801 -0.0259123 -8.86879e-10 -1.26058e-09 1.35421e-09 -2.22167 -0.733487 0.20892 -2.03217e-16 0.0 -3.88251e-19 -10.6833 -32.9804 -6.2362 -0.163322 24.0789 0.271467 -1.78696 -2.52025 -11.2196 2.03217e-16 0.0 3.88251e-19 10.4725 -37.5443 5.10874 -0.00509712 24.0693 -0.417733 -0.853102 -4.48427 -7.59803
-58.8257 83.0905 24.5642 -134.655 87.2805 -115.125 1.58997 8.93088 2.47949 3.7939 3.66096 0.809536 2.24728 3.90206 -1.44836 -6.92287 25.3788 1.94948 -0.0 0.0 0.0 -0.0 0.0 0.0 2.07371e-14 1.96956e-12 -1.3905e-13 60.6957 47.9873 34.6897 -20.4302 -13.5627 39.7348 -4.43844 -49.7486 -9.55563 9.62862e-10 8.96767e-10 5.84551e-10 1.62704e-09 1.6578e-09 1.04691e-09 9.62871e-10 8.9677e-10 5.84545e-10 7.73091 5.47488 0.417314 9.62861e-10 8.96766e-10 5.84551e-10 2.90554 0.965183 0.102902 9.62866e-10 8.96765e-10 5.84558e-10 10.2786 0.731801 0.0259123 9.62864e-10 8.96764e-10 5.8457e-10 2.22167 -0.733487 -0.20892 2.05618e-14 1.96956e-12 -1.39199e-13 -24.1884 57.5534 -76.1636 18.7497 -11.5162 -35.7248 4.24869 -49.0048 9.30563 -1.11485e-09 -1.62025e-09 1.71812e-09 -1.98045e-09 -2.73948e-09 2.91774e-09 -1.11486e-09 -1.62026e-09 1.71813e-09 -7.73091 5.47488 -0.417314 -1.11485e-09 -1.62025e-09 1.71812e-09 -2.90554 0.965183 -0.102902 -1.11485e-09 -1.62026e-09 1.71811e-09 -10.2786 0.731801 -0.0259123 -1.11484e-09 -1.62025e-09 1.7181e-09 -2.22167 -0.733487 0.20892 -2.03217e-16 0.0 -3.88251e-19 -10.7575 -32.9157 -6.44388 -0.166464 24.0801 0.269947 -1.80239 -2.51665 -11.3403 2.03217e-16 0.0 3.88251e-19 10.4343 -37.6056 5.07925 -0.00582657 23.974 -0.413704 -0.887906 -4.43282 -7.94226
-58.8286 83.0949 24.5422 -139.747 87.0927 -120.223 1.61775 8.90366 2.52311 3.79185 3.6477 0.823208 2.28444 3.90698 -1.46857 -6.92514 25.3423 1.9119 -0.0 0.0 0.0 -0.0 0.0 0.0 2.14796e-14 1.72092e-12 -1.26481e-13 60.7373 47.9919 34.6292 -20.443 -13.5792 39.7665 -4.46252 -49.8406 -9.58714 5.9821e-10 7.20771e-10 5.57862e-10 1.00212e-09 1.31641e-09 9.85744e-10 5.98218e-10 7.20776e-10 5.57856e-10 7.73091 5.47488 0.417314 5.98208e-10 7.20772e-10 5.57861e-10 2.90554 0.965183 0.102902 5.98215e-10 7.2077e-10 5.57868e-10 10.2786 0.731801 0.0259123 5.98212e-10 7.20769e-10 5.57878e-10 2.22167 -0.733487 -0.20892 2.12994e-14 1.72091e-12 -1.2661e-13 -23.9199 57.5619 -76.3856 18.7468 -11.5128 -35.718 4.2501 -49.0104 9.30751 -7.52183e-10 -1.49015e-09 1.55536e-09 -1.35112e-09 -2.54257e-09 2.6525e-09 -7.52195e-10 -1.49016e-09 1.55537e-09 -7.73091 5.47488 -0.417314 -7.52182e-10 -1.49016e-09 1.55536e-09 -2.90554 0.965183 -0.102902 -7.52185e-10 -1.49016e-09 1.55535e-09 -10.2786 0.731801 -0.0259123 -7.52176e-10 -1.49015e-09 1.55534e-09 -2.22167 -0.733487 0.20892 -2.03217e-16 0.0 -3.88251e-19 -10.9103 -32.868 -6.65679 -0.167907 24.123 0.269384 -1.82279 -2.5206 -11.479 2.03217e-16 0.0 3.88251e-19 10.3054 -37.6517 5.02579 -0.00667367 23.86 -0.409433 -0.91391 -4.37088 -8.23467
-58.8386 83.0985 24.5145 -144.829 86.8792 -125.286 1.58598 8.87498 2.58194 3.82227 3.63783 0.83846 2.3206 3.90973 -1.49345 -6.94393 25.309 1.87038 -0.0 0.0 0.0 -0.0 0.0 0.0 8.08419e-15 1.09947e-12 -1.02349e-13 60.7665 47.9655 34.5746 -20.4487 -13.5866 39.7806 -4.48475 -49.9253 -9.61621 -6.1435e-11 2.75722e-10 3.55209e-10 -1.21573e-10 4.75588e-10 6.09016e-10 -6.14276e-11 2.75727e-10 3.55204e-10 7.73091 5.47488 0.417314 -6.14372e-11 2.75725e-10 3.55208e-10 2.90554 0.965183 0.102902 -6.1428e-11 2.75723e-10 3.55213e-10 10.2786 0.731801 0.0259123 -6.1433e-11 2.75721e-10 3.5522e-10 2.22167 -0.733487 -0.20892 7.91232e-15 1.09947e-12 -1.02449e-13 -23.5995 57.5729 -76.6726 18.7419 -11.5073 -35.7068 4.24994 -49.0097 9.30729 2.80626e-12 -1.04597e-09 1.05337e-09 -3.46144e-11 -1.82839e-09 1.81853e-09 2.79571e-12 -1.04597e-09 1.05338e-09 -7.73091 5.47488 -0.417314 2.80864e-12 -1.04597e-09 1.05337e-09 -2.90554 0.965183 -0.102902 2.80664e-12 -1.04597e-09 1.05336e-09 -10.2786 0.731801 -0.0259123 2.81397e-12 -1.04596e-09 1.05335e-09 -2.22167 -0.733487 0.20892 -2.03217e-16 0.0 -3.88251e-19 -11.1097 -32.8338 -6.87672 -0.168543 24.1938 0.269439 -1.84482 -2.52495 -11.6243 2.03217e-16 0.0 3.88251e-19 10.1262 -37.6912 4.95792 -0.00748035 23.7412 -0.405199 -0.935189 -4.2988 -8.50638
